<?xml version="1.0" standalone="no"?>
<!DOCTYPE svg PUBLIC "-//W3C//DTD SVG 1.1//EN" "http://www.w3.org/Graphics/SVG/1.1/DTD/svg11.dtd">
<svg xmlns="http://www.w3.org/2000/svg" id="Layer_2" data-name="Layer 2" viewBox="0 0 4815.69 1116.17" width="4815.68994140625" height="1116.1700439453125">
  <defs>
    <style>
      .cls-1 {
        stroke-width: 0px;
      }
    </style>
  </defs>
  <g id="svg8328">
    <path id="rect19595-7-0" class="cls-1" d="m2493.5,0c-.55,0-1.09.13-1.58.38,0,0-1.58.79-3.19,1.98-.8.6-1.64,1.28-2.41,2.27-.77.99-1.7,2.64-1.14,4.72.73,2.73,2.82,3.74,4.31,4.3v9.07c-29.15,10.96-48.87,26.53-61.51,45.37-12.51,18.65-18,40.35-19.7,63.49l-9.05,2.43c-1.52.41-2.58,1.79-2.58,3.37v28.97l-11.93,3.2c-1.52.41-2.58,1.79-2.58,3.37v131.1h-2.05l-2.11-3.65c-.62-1.08-1.77-1.74-3.02-1.74h-11.38c-1.93,0-3.49,1.56-3.49,3.49v2.2h-4.57c-1.93,0-3.49,1.56-3.49,3.49h0v741.59h-9.53v-492.65c0-1.25-.67-2.4-1.75-3.02l-3.67-2.12v-12.38c0-1.93-1.56-3.49-3.49-3.49h-38.7l-50.99-29.44c-.53-.31-1.13-.47-1.75-.47h-23.38v-3.61c1.92-.01,3.47-1.57,3.47-3.49v-8.76c0-1.92-1.55-3.48-3.47-3.49v-3.48c1.92-.01,3.47-1.57,3.47-3.49v-8.76c0-1.92-1.55-3.48-3.47-3.49v-3.48c0-1.25-.67-2.4-1.75-3.02l-11.27-6.52-3.13-8.49c-.67-1.81-2.67-2.73-4.48-2.06-.96.35-1.71,1.11-2.07,2.07l-3.12,8.49-11.28,6.51c-1.08.62-1.74,1.77-1.74,3.02v3.48c-1.92.01-3.47,1.57-3.47,3.49v8.76c0,1.92,1.55,3.48,3.47,3.49v3.48c-1.92.01-3.47,1.57-3.47,3.49v8.76c0,1.92,1.55,3.48,3.47,3.49v3.61h-23.37c-.61,0-1.21.16-1.75.47l-50.98,29.44h-38.7c-1.93,0-3.49,1.56-3.49,3.49v12.38l-3.67,2.12c-1.08.62-1.74,1.77-1.75,3.02v492.65h-9.53v-417.72c0-1.25-.67-2.4-1.75-3.02l-2.88-1.67v-10.3c0-1.93-1.56-3.49-3.49-3.49h-32.96l-43.48-25.11c-.53-.31-1.13-.47-1.75-.47h-19.49v-2.12c1.7-.26,2.96-1.72,2.97-3.44v-7.49c0-1.72-1.26-3.19-2.97-3.45v-2.05c1.7-.26,2.96-1.72,2.97-3.44v-7.49c0-1.72-1.26-3.19-2.97-3.44v-2.51c0-1.25-.66-2.4-1.74-3.02l-9.49-5.48-2.61-7.09c-.66-1.81-2.67-2.74-4.48-2.07-.96.35-1.72,1.11-2.07,2.07l-2.61,7.09-9.49,5.48c-1.08.62-1.74,1.77-1.74,3.02v2.51c-1.7.26-2.96,1.72-2.97,3.44v7.49c0,1.72,1.26,3.19,2.97,3.45v2.05c-1.7.26-2.96,1.72-2.97,3.44v7.49c0,1.72,1.26,3.19,2.97,3.44v2.12h-19.49c-.61,0-1.22.16-1.75.47l-43.48,25.1h-32.96c-1.93,0-3.49,1.56-3.49,3.49v10.3l-2.89,1.67c-1.08.62-1.74,1.77-1.74,3.02v417.72h-13.32v-481.61c0-1.93-1.56-3.49-3.49-3.49h-44.85v-88.62c0-1.93-1.56-3.49-3.49-3.49h-26.54v-68.77c0-.9-.35-1.76-.97-2.41l-81.43-84.98c-1.33-1.39-3.54-1.44-4.93-.11-.04.03-.07.07-.11.11l-81.43,84.98c-.62.65-.97,1.51-.97,2.41v68.77h-26.54c-1.93,0-3.49,1.56-3.49,3.49v88.62h-44.86c-1.93,0-3.49,1.56-3.49,3.49v481.61h-6.21v-26.14l.29-.49c.63-1.08.63-2.41,0-3.5l-.15-.26v-5.14l.18-.64c.24-.89.11-1.85-.35-2.65l-.92-1.6v-5.98c0-.61-.16-1.21-.47-1.74l-1.6-2.78v-183.03l.27-.07c1.52-.41,2.58-1.79,2.58-3.37v-3.47c0-1.93-1.56-3.49-3.49-3.49h-145.82c3.45-20.52,7.19-41.52,12.07-64.46l.82-.26c1.29-.41,2.23-1.53,2.4-2.88l.69-5.38c.22-1.69-.82-3.29-2.45-3.79l-9.26-2.8c-.28-.09-.57-.14-.86-.15l-9.67-.41c-1.71-.07-3.21,1.1-3.56,2.77l-1.12,5.3c-.28,1.32.23,2.69,1.31,3.51l.74.56c-2.91,30.16-8.67,59.83-14.23,89.67-18.91,73.98-44.82,149.04-54.54,222.66h-4.49v-61.45l1.04-3.87c.24-.89.12-1.85-.35-2.65l-.85-1.46v-44.32l1.17-4.37c.5-1.86-.6-3.77-2.46-4.27,0,0,0,0,0,0l-1.03-.28v-50.41l2.39-2.4c.65-.65,1.02-1.54,1.02-2.47v-3.32c0-1.93-1.56-3.49-3.49-3.49h-2.93v-2.16c0-1.93-1.56-3.49-3.49-3.49h-18.24s.02-.05.04-.07l1.08-4.04c.5-1.86-.6-3.77-2.47-4.27-.3-.08-.6-.12-.9-.12h-82.63c-1.93,0-3.49,1.56-3.49,3.49,0,.31.04.61.12.9l1.55,5.76c.32,1.2,1.26,2.14,2.46,2.47l1.9.51.58,2.14v3.66c-3.07.04-21.33.29-42.61.44-11.5.08-22.99.12-31.55.06-4.28-.03-7.84-.08-10.26-.17-.25-.01-.33-.02-.56-.03-.04-.34-.05-.68-.08-1-.06-.74-.1-1.42-.1-1.8.28-.43.69-.93.87-1.28.04-.04.04-.04.04-.08l2.68-1.55c1.67-.96,2.24-3.1,1.28-4.77,0,0,0,0,0,0l-1.45-2.51c-.43-.75-1.13-1.31-1.96-1.58l-49.53-15.86c-.69-.22-1.43-.22-2.13,0l-49.53,15.86c-.83.26-1.52.83-1.96,1.58l-1.45,2.51c-.96,1.67-.39,3.8,1.28,4.77h0s2.69,1.55,2.69,1.55c.04.04.04.04.04.07.18.36.6.86.87,1.29,0,.38-.04,1.06-.09,1.8-.04.32-.05.66-.08,1-.23.01-.31.02-.56.03-2.42.09-5.98.14-10.26.17-8.57.06-20.05.02-31.55-.06-21.28-.15-39.54-.4-42.6-.44v-3.66l.57-2.14,1.9-.51c1.2-.32,2.14-1.26,2.47-2.47l1.55-5.76c.5-1.86-.6-3.77-2.47-4.27-.3-.08-.6-.12-.9-.12h-5.49v-.69l-.21.2c.66-.65,1.03-1.54,1.03-2.47v-55.4c0-.3-.04-.61-.12-.9l-.81-3.03c-.04-.17-.4-3.05-.6-6.08-.1-1.56-.14-3.13-.08-4.11,0-.02,0-.02,0-.04.63-.33,1.42-.61,1.92-.94.98-.64,1.73-1.23,1.73-1.23,1.52-1.19,1.78-3.38.59-4.9-.66-.84-1.67-1.33-2.74-1.33h-1.3v-17.43l.81-3.03c.11-.41.14-.83.1-1.25l-1.71-17.14c-.19-1.92-1.91-3.31-3.82-3.12-.88.09-1.7.51-2.28,1.18l-2.87-6.49.26-5.98-.31.17c1.61-.88,2.26-2.85,1.5-4.51l-.77-1.68c-.06-.14-.13-.27-.21-.39l-2.4-3.85.08-1.92.47-2.74c.07-.36.08-.72.04-1.08l-1.03-7.34c-.13-.94-.65-1.79-1.42-2.35l-1.8-1.29c-1.56-1.12-3.74-.77-4.87.8-.35.48-.57,1.05-.63,1.64l-.65,5.67c-.03.21-.04.42-.04.63l.14,2.08h-8.63l-2.85-37.49c-.14-1.82-1.65-3.22-3.48-3.22h-1.02c-1.82,0-3.34,1.41-3.48,3.22l-2.85,37.49h-8.63l.14-2.08c0-.21,0-.42-.04-.62l-.64-5.67c-.22-1.91-1.95-3.29-3.86-3.07-.59.07-1.15.28-1.64.63l-1.81,1.29c-.78.56-1.29,1.41-1.42,2.35l-1.03,7.34c-.05.36-.03.73.04,1.08l.48,2.74.08,1.91-2.4,3.85c-.08.12-.15.25-.21.38l-.77,1.68c-.77,1.67-.11,3.64,1.5,4.52l-.32-.17.27,5.98-2.87,6.5c-1.26-1.46-3.46-1.61-4.92-.35-.67.58-1.1,1.4-1.19,2.29l-1.7,17.15c-.04.42,0,.84.1,1.24l.81,3.03v17.43h-1.29c-1.93,0-3.49,1.56-3.49,3.49,0,1.07.49,2.08,1.33,2.74,0,0,.74.59,1.73,1.23.5.33,1.3.61,1.92.94v.04c.06.98.04,2.55-.08,4.11-.2,3.03-.58,5.9-.6,6.08l-.81,3.03c-.08.29-.12.6-.12.9v55.4c0,.92.37,1.81,1.02,2.47l-.2-.2v.7h-2.26c-1.93,0-3.49,1.56-3.49,3.49,0,.31.04.61.12.91l1.08,4.04s.02.05.04.07h-18.25c-1.93,0-3.49,1.56-3.49,3.49v2.16h-2.93c-1.93,0-3.49,1.56-3.49,3.49h0v3.33c0,.93.37,1.81,1.02,2.47l2.4,2.39v50.41l-1.04.28c-1.86.5-2.97,2.41-2.47,4.27h0s1.17,4.37,1.17,4.37v44.32l-.85,1.46c-.46.8-.59,1.75-.35,2.65l1.04,3.87v61.45h-2.33v-15.87c0-.93-.37-1.81-1.02-2.47l-1.35-1.35v-32.33c0-.61-.16-1.21-.47-1.74l-2.96-5.14v-68.6c0-1.25-.67-2.4-1.75-3.02l-.48-.28v-20.06c0-.3-.04-.61-.12-.9l-6.33-23.61c-.5-1.86-2.42-2.96-4.28-2.46-1.2.32-2.14,1.26-2.46,2.46l-5.64,21.04c-.08.29-.12.6-.12.9v19.63l-55-23.05v-28.31l1.42-1.42c1.36-1.36,1.36-3.57,0-4.93l-5.43-5.42v-80.94l1.03-1.78c.79-1.37.56-3.1-.55-4.21l-.82-.82v-20.52c0-.17-.01-.34-.04-.5l-3.31-22.75c-.28-1.91-2.05-3.22-3.96-2.94-.81.12-1.56.52-2.1,1.14v-4.49c0-.61-.16-1.21-.47-1.75l-.4-.69v-13.43c0-.92-.37-1.81-1.02-2.46l-.65-.65-2.03-14.96c-.26-1.91-2.02-3.25-3.93-2.99-.86.12-1.64.55-2.2,1.21l-10.28-122.16v-23.35h7.61c1.93,0,3.49-1.56,3.49-3.49v-4.69c0-1.93-1.56-3.49-3.49-3.49h-7.61v-3.16c0-1.93-1.56-3.49-3.49-3.49h-4.19c-1.93,0-3.49,1.56-3.49,3.49v3.16h-7.6c-1.93,0-3.49,1.56-3.49,3.49h0v4.69c0,1.93,1.56,3.49,3.49,3.49h7.6v23.36l-10.28,122.15c-1.24-1.47-3.44-1.66-4.92-.42-.66.56-1.09,1.34-1.21,2.2l-2.02,14.95-.66.66c-.65.65-1.02,1.54-1.02,2.47v13.43l-.4.69c-.31.53-.47,1.13-.47,1.75v4.49c-1.28-1.44-3.49-1.57-4.93-.29-.61.54-1.01,1.29-1.13,2.1l-3.31,22.75c-.02.17-.04.33-.04.5v20.52l-.83.82c-1.12,1.12-1.35,2.85-.56,4.22l1.03,1.78v80.94l-5.43,5.42c-1.36,1.36-1.36,3.57,0,4.93,0,0,0,0,0,0l1.42,1.42v28.31l-55,23.05v-19.63c0-.3-.04-.61-.12-.9l-5.64-21.04c-.5-1.86-2.41-2.97-4.27-2.47-1.21.32-2.15,1.26-2.47,2.47l-6.33,23.61c-.08.29-.12.6-.12.9v20.06l-.48.28c-1.08.62-1.74,1.77-1.74,3.02v68.6l-2.97,5.14c-.31.53-.47,1.13-.47,1.74v32.33l-1.36,1.35c-.66.65-1.02,1.54-1.02,2.47v15.87h-10.46v-.04l.6-1.03c.46-.8.58-1.75.35-2.64l-.55-2.05v-86.11l.55-.95c.46-.8.59-1.75.35-2.64l-.56-2.1v-12.25l5.94-1.59c1.52-.41,2.58-1.79,2.58-3.37v-1.62l3.01-3.01c1.36-1.36,1.36-3.57,0-4.93-.65-.65-1.54-1.02-2.46-1.02h-13.62l-.41-1.51c-.41-1.52-1.79-2.58-3.37-2.58h-144.28v-3.85l.82-.22c1.2-.32,2.15-1.26,2.47-2.47l.69-2.58,2.01-3.47c.96-1.67.4-3.8-1.27-4.77-.3-.17-.63-.3-.97-.38l-72.82-16.71c-.51-.12-1.05-.12-1.56,0l-72.82,16.71c-1.88.43-3.05,2.3-2.62,4.18.08.34.21.66.38.96l2.01,3.48.69,2.58c.32,1.2,1.26,2.14,2.47,2.47l.82.22v3.85H43.35c-1.58,0-2.96,1.06-3.37,2.59l-.4,1.5h-13.62c-1.93,0-3.49,1.57-3.48,3.49,0,.92.37,1.81,1.02,2.46l3.01,3.01v1.62c0,1.58,1.06,2.96,2.59,3.37l5.95,1.6v12.25l-.56,2.1c-.24.9-.11,1.85.35,2.65l.55.95v86.11l-.55,2.04c-.24.9-.11,1.85.35,2.65l.59,1.03v.04H3.49c-1.93,0-3.49,1.56-3.49,3.49v59.76c-.03,1.93,1.51,3.51,3.44,3.54s3.51-1.51,3.54-3.44c0-.03,0-.07,0-.1v-56.27h32.29c1.93,0,3.49-1.56,3.49-3.49v-4.46c0-.61-.16-1.21-.47-1.75l-.34-.59.29-1.09c.08-.29.12-.6.12-.9v-87.5c0-.61-.16-1.22-.47-1.75l-.29-.51.31-1.15c.08-.3.12-.6.12-.91v-15.38c0-1.58-1.06-2.96-2.58-3.37l-5.95-1.59v-.39c0-.18-.02-.37-.05-.55h8.82c1.58,0,2.96-1.06,3.37-2.59l.4-1.5h145.09c1.93,0,3.49-1.56,3.49-3.49h0v-10.01c0-1.58-1.06-2.96-2.59-3.37l-1.46-.39-.29-1.08c-.06-.21-.13-.42-.23-.62l67.45-15.47,67.45,15.47c-.1.2-.18.41-.24.63l-.29,1.08-1.46.39c-1.53.41-2.59,1.79-2.59,3.37v10.01c0,1.93,1.56,3.49,3.49,3.49h145.1l.41,1.51c.41,1.52,1.79,2.58,3.37,2.58h8.81c-.03.18-.04.36-.05.55v.39l-5.94,1.59c-1.52.41-2.58,1.79-2.58,3.37v15.38c0,.3.04.61.12.9l.31,1.15-.29.52c-.31.53-.47,1.13-.47,1.74v87.5c0,.3.04.6.12.9l.29,1.1-.34.59c-.3.53-.46,1.13-.46,1.74v4.46c0,1.93,1.56,3.49,3.49,3.49h17.44c1.93,0,3.49-1.56,3.49-3.49h0v-17.91l1.35-1.35c.66-.65,1.02-1.54,1.02-2.47v-32.84l2.97-5.14c.31-.53.47-1.13.47-1.75v-67.52l.48-.27c1.08-.62,1.75-1.78,1.75-3.02v-21.61l2.84-10.59,2.15,8.02v24.42c0,1.93,1.56,3.49,3.49,3.49.46,0,.92-.09,1.35-.27l61.98-25.97c1.3-.54,2.14-1.81,2.14-3.22v-32.07c0-.91-.36-1.79-1-2.44l3.98-3.98c.65-.65,1.02-1.54,1.02-2.47v-83.32c0-.61-.16-1.21-.47-1.74l-.16-.27-.05.05c.66-.65,1.03-1.54,1.03-2.47v-21.72l.04-.27c.29,1.68,1.74,2.9,3.44,2.9h2.44c1.93,0,3.49-1.56,3.49-3.49v-28l.4-.69c.31-.53.47-1.13.47-1.75v-12.92l.47-.47c.13-.13.25-.28.36-.43.54.33,1.16.5,1.79.5h2.26c1.81,0,3.33-1.39,3.48-3.2l10.35-123,10.35,123c.15,1.81,1.66,3.2,3.48,3.2h2.27c.63,0,1.25-.18,1.79-.5.11.15.23.3.36.43l.47.47v12.92c0,.61.16,1.21.47,1.75l.4.69v28c0,1.93,1.56,3.49,3.49,3.49h2.44c1.71,0,3.16-1.23,3.44-2.92h0s.04.29.04.29v21.72c0,.92.37,1.81,1.02,2.47l-.05-.05-.16.27c-.31.53-.47,1.13-.47,1.75v83.32c0,.93.37,1.81,1.02,2.47l3.98,3.98c-.64.65-.99,1.53-.99,2.44v32.07c0,1.41.84,2.67,2.14,3.22l61.98,25.97c1.78.74,3.82-.09,4.57-1.87.18-.43.27-.88.27-1.35v-24.42l2.15-8.03,2.84,10.59v21.61c0,1.25.66,2.4,1.74,3.02l.48.27v67.52c0,.61.16,1.21.47,1.75l2.97,5.14v32.84c0,.93.37,1.81,1.02,2.47l1.35,1.35v17.91c0,1.93,1.56,3.49,3.49,3.49h9.82c1.93,0,3.49-1.56,3.49-3.49,0-.61-.16-1.22-.47-1.75l-.04-.06v-63.59c0-.3-.04-.61-.12-.9l-.78-2.92.59-1.02c.31-.53.47-1.13.47-1.75v-45.71c0-.3-.04-.61-.12-.9l-.39-1.45.25-.07c1.53-.41,2.59-1.79,2.59-3.37v-54.53c0-.93-.37-1.81-1.02-2.47l-.79-.78h1.32c1.93,0,3.49-1.56,3.49-3.49v-2.16h20.02c1.93,0,3.49-1.56,3.49-3.49v-2.55c0-.92-.37-1.81-1.02-2.47h0s.29,0,.29,0c1.93,0,3.49-1.56,3.49-3.49v-5.63c0-.92-.37-1.81-1.02-2.47l.2.2v-53.49l.76-2.85c.04-.15.07-.29.09-.44,0,0,.44-3.3.67-6.73.11-1.71.18-3.45.08-5.01-.05-.78-.12-1.5-.37-2.34-.05-.15-.18-.36-.25-.52.27-.51.42-1.07.42-1.65v-21.38c0-.3-.04-.61-.12-.9l-.77-2.86.41-4.1c1-.28,1.82-1,2.24-1.95l7.73-17.52c.22-.49.32-1.03.29-1.56l-.39-8.76c-.03-.56-.18-1.1-.46-1.58l2.26-3.64c.32-.51.5-1.1.52-1.7h14.55c1.83,0,3.34-1.41,3.48-3.23l.12-1.61.12,1.61c.14,1.82,1.65,3.23,3.48,3.23h14.56c.02.6.2,1.19.52,1.7l2.26,3.63c-.28.48-.44,1.03-.47,1.59l-.38,8.76c-.02.54.08,1.07.29,1.56l7.73,17.52c.42.95,1.24,1.66,2.24,1.94l.41,4.1-.77,2.86c-.08.3-.12.6-.12.91v21.38c0,.58.14,1.15.42,1.65-.06.16-.2.37-.24.52-.25.84-.32,1.56-.37,2.34-.1,1.56-.04,3.29.08,5.01.22,3.43.67,6.73.67,6.73.02.15.05.3.09.44l.76,2.85v53.49l.2-.21c-.66.65-1.03,1.55-1.03,2.48v5.63c0,1.93,1.56,3.49,3.49,3.49h2.48c-1.11.37-1.96,1.27-2.27,2.4l-1.21,4.53c-.08.29-.12.6-.12.9v7.57c0,1.91,1.53,3.46,3.44,3.49,0,0,23.07.32,46.1.48,11.52.08,23.02.12,31.65.06,4.31-.03,7.91-.09,10.46-.18,1.28-.04,2.28-.1,3.07-.17.4-.04.71-.07,1.15-.16.22-.05.44-.07.96-.32.26-.13.63-.28,1.15-.87s1.07-2.05.76-3.24c.19.7.04.11.07-.47s.11-1.37.18-2.19.14-1.65.13-2.51c0-.43-.04-.86-.12-1.41-.11-.54-.18-1.3-1.16-2.28h0c.22.22-.14-.24-.34-.62-.2-.39-.32-.7-.32-.7-.17-.43-.43-.82-.75-1.15l44.85-14.36,44.85,14.36c-.33.33-.58.72-.76,1.15,0,0-.13.31-.32.7-.2.39-.57.85-.34.62h0c-.99.99-1.05,1.74-1.16,2.29-.11.54-.12.98-.12,1.41-.04.86.06,1.69.13,2.51.07.82.14,1.61.18,2.19.04.58-.12,1.16.07.47-.32,1.18.24,2.65.76,3.24.52.59.89.74,1.15.87.52.25.75.27.96.32.44.09.75.12,1.15.16.79.07,1.79.12,3.07.17,2.56.09,6.15.15,10.46.18,8.63.06,20.14.02,31.65-.06,23.03-.16,46.09-.48,46.09-.48,1.91-.03,3.44-1.58,3.44-3.49v-7.57c0-.31-.04-.61-.12-.91l-1.22-4.53c-.3-1.13-1.15-2.03-2.26-2.4h70.67c-.65.66-1.02,1.54-1.02,2.47v2.55c0,1.93,1.56,3.49,3.49,3.49h20.02v2.16c0,1.93,1.56,3.49,3.49,3.49h1.32l-.79.78c-.65.65-1.02,1.54-1.02,2.47v54.53c0,1.58,1.06,2.96,2.58,3.37l.25.07-.39,1.45c-.08.29-.12.6-.12.9v45.71c0,.61.16,1.21.47,1.74l.59,1.02-.78,2.92c-.08.29-.12.6-.12.9v63.59l-.04.06c-.97,1.67-.4,3.8,1.27,4.77.53.31,1.13.47,1.75.47h11.49c1.76,0,3.24-1.31,3.46-3.05,9.26-73.6,35.59-149.52,54.86-224.94.02-.08.04-.15.05-.23,5.68-30.48,11.68-61.02,14.57-92.36.11-1.2-.41-2.38-1.38-3.11l-.56-.42.05-.24,6.28.27,6.01,1.82-.04.25-.67.21c-1.19.38-2.09,1.37-2.35,2.59-5.46,25.4-9.49,48.35-13.23,70.8-.11.66-.02,1.35.25,1.96-.45.5-.75,1.11-.86,1.78-.96,5.78-1.91,11.54-2.86,17.3-.02.1-.03.2-.04.3-5.77,74.96-2.82,151.75-20.01,222.77-.45,1.87.7,3.76,2.57,4.21.27.06.54.1.82.1h21.81c1.93,0,3.49-1.56,3.49-3.49h0v-30.57c0-.43-.09-.86-.25-1.26l-.37.63c.14-.24.24-.49.32-.75-.04-.1-.09-.19-.14-.29l.15.25c.09-.31.14-.63.14-.96v-6.54c0-.3-.04-.61-.12-.9l.08.31.67-1.16c.31-.53.47-1.13.47-1.74v-5.98l1.61-2.78c.31-.53.47-1.13.47-1.75v-186.63c0-.25-.03-.51-.08-.75h139.04c-.06.25-.08.5-.08.75v186.63c0,.61.16,1.21.47,1.74l1.6,2.78v5.98c0,.61.16,1.22.47,1.75l.67,1.16.08-.31c-.08.29-.12.6-.12.9v6.54c0,.32.05.65.14.96l.19-.33c-.07.12-.13.24-.18.37.08.26.18.51.32.75l-.37-.63c-.16.4-.24.83-.24,1.26v30.56c0,1.93,1.56,3.49,3.49,3.49h13.19c1.93,0,3.49-1.56,3.49-3.49h0v-481.61h44.85c1.93,0,3.49-1.56,3.49-3.49v-88.62h26.54c1.93,0,3.49-1.56,3.49-3.49h0v-70.86l77.94-81.34,77.95,81.34v70.85c0,1.93,1.56,3.49,3.49,3.49h26.54v88.62c0,1.93,1.56,3.49,3.49,3.49h44.85v481.61c0,1.93,1.56,3.49,3.49,3.49h20.3c1.93,0,3.49-1.56,3.49-3.49h0v-419.19l2.89-1.67c1.08-.62,1.74-1.77,1.74-3.02v-8.82h30.41c.61,0,1.21-.16,1.75-.47l43.48-25.11h22.04c1.93,0,3.49-1.56,3.49-3.49v-9.05c0-1.72-1.26-3.19-2.97-3.45v-.6c1.7-.26,2.96-1.72,2.97-3.44v-8.95c0-1.72-1.26-3.19-2.97-3.44v-.6c1.7-.26,2.96-1.72,2.97-3.44v-3.94l8.84-5.11c.54-.32.99-.77,1.3-1.32.31.55.75,1.01,1.3,1.32l8.83,5.1v3.94c0,1.72,1.26,3.19,2.97,3.45v.6c-1.7.26-2.96,1.72-2.97,3.44v8.95c0,1.72,1.26,3.19,2.97,3.44v.6c-1.7.26-2.96,1.72-2.97,3.44v9.05c0,1.93,1.56,3.49,3.49,3.49h22.04l43.48,25.11c.53.31,1.13.47,1.75.47h30.41v8.82c0,1.25.66,2.4,1.74,3.02l2.89,1.67v419.19c0,1.93,1.56,3.49,3.49,3.49h16.51c1.93,0,3.49-1.56,3.49-3.49v-494.13l3.67-2.12c1.08-.62,1.74-1.77,1.75-3.02v-10.9h36.15c.61,0,1.21-.16,1.75-.47l50.98-29.44h25.93c1.93,0,3.49-1.56,3.49-3.49h0v-10.59c0-1.92-1.55-3.48-3.47-3.49v-1.79c1.92-.01,3.47-1.57,3.47-3.49v-10.46c0-1.92-1.55-3.48-3.47-3.49v-1.78c1.92-.01,3.47-1.57,3.47-3.49v-4.96l10.63-6.14c.71-.41,1.25-1.05,1.53-1.82l.29-.78.29.78c.28.76.82,1.41,1.53,1.81l10.62,6.14v4.96c0,1.92,1.55,3.48,3.47,3.49v1.78c-1.92.01-3.47,1.57-3.47,3.49v10.46c0,1.92,1.55,3.48,3.47,3.49v1.79c-1.92.01-3.47,1.57-3.47,3.49v10.58c0,1.93,1.56,3.49,3.49,3.49h25.93l50.99,29.44c.53.31,1.13.47,1.75.47h36.14v10.9c0,1.25.66,2.4,1.75,3.02l3.68,2.12v494.13c0,1.93,1.56,3.49,3.49,3.49h16.51c1.93,0,3.49-1.56,3.49-3.49V311.28h4.57c1.93,0,3.49-1.56,3.49-3.49v-2.2h5.87l2.11,3.65c.62,1.08,1.77,1.74,3.02,1.74h7.55c1.93,0,3.49-1.56,3.49-3.49h0v-131.92l11.93-3.2c1.52-.41,2.58-1.79,2.58-3.37v-28.97l8.77-2.35c1.45-.39,2.49-1.66,2.58-3.16,1.42-23.31,6.72-44.55,18.81-62.57,12.09-18.02,31.01-33,60.39-43.61,1.38-.5,2.3-1.81,2.3-3.28v-14.08c0-1.71-1.24-3.17-2.92-3.44.42-.27.7-.45.93-.58h70.75c.23.13.52.32.94.58-1.69.27-2.93,1.73-2.93,3.44v14.08c0,1.47.92,2.78,2.3,3.28,29.38,10.61,48.3,25.59,60.39,43.61,12.09,18.02,17.38,39.26,18.81,62.57.09,1.5,1.13,2.77,2.58,3.16l8.77,2.35v28.97c0,1.58,1.06,2.96,2.58,3.37l11.92,3.2v131.91c0,1.93,1.56,3.49,3.49,3.49h7.56c1.25,0,2.4-.66,3.02-1.74l2.1-3.65h5.88v2.2c0,1.93,1.56,3.49,3.49,3.49h4.57v741.59c0,1.93,1.56,3.49,3.49,3.49h20.3c1.93,0,3.49-1.56,3.49-3.49V442.76h151.4v610.11c0,1.93,1.56,3.49,3.49,3.49h12.71c1.93,0,3.49-1.56,3.49-3.49h0v-89.19h9.87c1.93,0,3.49-1.56,3.49-3.49v-13.34h29.91c1.93,0,3.49-1.56,3.49-3.49V210.74h167.94v732.57c0,1.93,1.56,3.49,3.49,3.49h7.66c.2.03.4.05.59.05h21.66v13.34c0,1.93,1.56,3.49,3.49,3.49h9.87v89.19c0,1.93,1.56,3.49,3.49,3.49h14.61c1.93,0,3.49-1.56,3.49-3.49h0v-481.61h28.58c1.65,0,3.07-1.15,3.41-2.77l9.67-45.94c.05-.24.07-.48.07-.72v-19.59h21.19c1.93,0,3.49-1.56,3.49-3.49v-29.16h12.52c1.93,0,3.49-1.56,3.49-3.49v-12.81l25.66-9.91,25.66,9.91v12.81c0,1.93,1.56,3.49,3.49,3.49h12.52v29.16c0,1.93,1.56,3.49,3.49,3.49h21.19v19.59c0,.24.03.48.08.72l9.67,45.94c.34,1.61,1.76,2.77,3.41,2.77h28.58v442.03c0,1.93,1.56,3.49,3.49,3.49.05,0,.11,0,.16,0l20.15-.95c1.06-.05,2.05-.58,2.67-1.45,39.21-54.65,105.88-99.87,211.02-102.39,125.22,1.81,174.09,54.18,210.93,102.47.61.8,1.54,1.3,2.54,1.37l14.4.94c1.92.12,3.58-1.33,3.71-3.26,0-.07,0-.15,0-.22v-.07c0-.77-.26-1.53-.74-2.14.77-.87,1.05-2.07.75-3.2l-.73-2.71-.9.52c.32-.19.61-.42.85-.7l-.17-.64c-.08-.29-.19-.57-.34-.83l.71,1.24c.58-.78.81-1.76.64-2.71,0,0-.23-1.26-.54-2.63-.15-.68-.33-1.39-.53-2.07-.1-.34-.21-.66-.36-1.02-.15-.36-.19-.72-.98-1.51,1.01,1.01.72,1.32.52.48-.09-.42-.27-1.11-.84-1.88-.56-.77-1.57-1.45-2.52-1.71-.21-.06-.24-.02-.43-.06.16-.09.71-.41.71-.41.52-.3.95-.73,1.26-1.25,0,0,1.27-1.95,1.27-4.69,0-1.68-.61-2.7-.93-3.33.15-.67.26-1.25.19-1.69.14-.12.14-.11.28-.24.46-.42.93-.88,1.38-1.39.45-.51.99-.64,1.4-2.46h0c-.12.51.2-.28.4-.77.51.38,1.2.7,2.26.7-1.08,0-.7,0,.42.18.56.09,1.64.17,2.78-.52.59-.36,1.02-.87,1.32-1.39,0,0,.04.06.04.06.22.58.59,1.1,1.08,1.49l.48.38c.59.47,1.31.74,2.06.77,0,0,2.62.1,5.28.15,1.33.02,2.66.04,3.73.02.54-.01,1-.03,1.45-.07.23-.02.43-.04.79-.12.18-.04.39-.08.8-.27.41-.19,1.46-.49,1.94-2.29.21-.78.12-.65.12-.75,0-.11,0-.19.04-.28,0-.18,0-.39.04-.64v-7.67c0-3.19-.04-5.08-.04-6.33.4-.44.82-.88,1-1.55.57-2.13-.23-3.01-.45-3.51-.22-.5-.13-.72-.13,0,0-.57-.05-.85-.08-1.18.12-.12.22-.22.35-.35.54-.51,1.06-.98,1.06-.98.71-.64,1.13-1.55,1.15-2.51l7.78-323.56c.02-.78-.23-1.55-.7-2.18,0,0-.52-.7-1.02-1.47-.25-.39-.49-.79-.61-1.03-.13-.25.04-.61.04.55,0-1.87-.41-2.01-.72-2.7-.31-.69-.67-1.41-1.03-2.09-.72-1.36-1.42-2.56-1.42-2.56-.68-1.17-1.98-1.84-3.33-1.71l-4.67.43v-11.38h12.12c1.58,0,2.96-1.06,3.37-2.59l2.1-7.86c.24-.89.11-1.84-.35-2.64l-3.01-5.22.23-.4,2.69-2.68c.66-.65,1.02-1.54,1.02-2.47v-36.86c0-.92-.37-1.81-1.02-2.47l-3.75-3.75,1.42-.38c1.56-.42,2.62-1.85,2.58-3.46-.24-9.51,2.14-15.06,5.95-18.9,3.67-3.68,9.13-5.85,15.63-7.3,6.5,1.45,11.96,3.61,15.63,7.3,3.81,3.83,6.19,9.39,5.95,18.9-.04,1.61,1.03,3.04,2.58,3.46l1.42.38-3.75,3.75c-.65.65-1.02,1.54-1.02,2.47v36.86c0,.92.37,1.81,1.02,2.47l2.69,2.69.23.4-3.01,5.21c-.46.8-.59,1.76-.35,2.65l2.1,7.85c.41,1.53,1.79,2.59,3.37,2.59h12.12v11.38l-4.68-.43c-1.35-.12-2.65.55-3.33,1.72,0,0-.7,1.21-1.42,2.56-.36.68-.72,1.39-1.03,2.09-.31.69-.72.83-.72,2.7,0-1.16.14-.79.04-.55-.13.25-.36.65-.61,1.03-.5.77-1.02,1.47-1.02,1.47-.47.63-.72,1.39-.7,2.18l7.78,323.56c.02.96.44,1.87,1.15,2.51,0,0,.52.47,1.06.98.13.12.23.23.35.35-.04.33-.08.61-.08,1.18,0-.72.09-.51-.13,0-.22.5-1.02,1.38-.45,3.51h0c.18.68.6,1.12,1,1.56,0,1.25-.04,3.15-.04,6.33v5.7c0,.79,0,1.46.04,1.97,0,.25,0,.46.04.64,0,.09,0,.18.04.28,0,.11-.08-.02.12.75.49,1.8,1.53,2.1,1.94,2.29.41.19.62.23.8.27.36.08.57.09.8.12.45.04.91.06,1.45.07,1.07.02,2.41,0,3.73-.02,2.66-.05,5.27-.15,5.27-.15.75-.03,1.46-.29,2.05-.76l.48-.38c.49-.39.87-.92,1.09-1.51,0,0,.04-.04.04-.04.3.52.72,1.02,1.31,1.38,1.14.7,2.22.61,2.78.52,1.12-.18,1.5-.18.42-.18,1.06,0,1.75-.32,2.26-.7.2.49.52,1.28.4.77.41,1.82.95,1.95,1.4,2.46.45.51.92.97,1.38,1.39.14.13.14.12.28.25-.07.45.04,1.03.19,1.69-.32.63-.93,1.65-.93,3.33,0,2.74,1.27,4.69,1.27,4.69.31.52.74.95,1.26,1.25,0,0,.55.32.71.41-.19.04-.21,0-.43.06-.94.25-1.96.94-2.52,1.71-.56.77-.74,1.46-.83,1.88-.2.84-.5.53.52-.48-.79.79-.82,1.15-.97,1.51-.15.36-.26.68-.36,1.02-.2.67-.38,1.38-.53,2.07-.31,1.37-.54,2.63-.54,2.63-.19,1.06.11,2.15.83,2.95l-.77,2.88c-.3,1.12-.02,2.32.74,3.2-.48.61-.73,1.36-.74,2.14v39.66c0,1.93,1.56,3.49,3.49,3.49h19.55c1.93,0,3.49-1.56,3.49-3.49h0v-58.67l.76-2.83h0s1.25-4.64,1.25-4.64h0s1.3-4.87,1.3-4.87c.08-.29.12-.6.12-.9v-98.83c0-.3-.04-.61-.12-.9l-.66-2.46c.64-.45,1.11-1.11,1.33-1.86l6.27-21.11c.1-.32.14-.66.14-.99v-29.05h2.98c1.52,0,2.86-.98,3.32-2.43l11.94-37.5c.11-.34.16-.7.16-1.06v-40.32c0-1.04-.47-2.03-1.27-2.69l-.95-.79,14.05-84.97,14.05,84.97-.96.78c-.81.66-1.28,1.65-1.28,2.7v40.32c0,.36.05.72.16,1.06l11.94,37.5c.46,1.45,1.8,2.43,3.32,2.43h2.97v29.05c0,.34.05.67.15.99l6.26,21.11c.23.77.71,1.43,1.38,1.88l-.16.6c-.08.3-.12.6-.12.91v20.39c0,1.93,1.56,3.49,3.49,3.49,1,0,1.96-.43,2.62-1.19l53.67-61.15c.27-.31.49-.67.64-1.06l1.18-3.1,1.83-2.03,1.84,2.03,1.18,3.1c.15.39.36.75.64,1.06l53.66,61.15c1.27,1.45,3.48,1.59,4.92.32.75-.66,1.19-1.62,1.19-2.62v-20.39c0-.3-.04-.6-.11-.89h.58c1.93,0,3.49-1.56,3.49-3.49v-62.86l4.46-4.45c.65-.65,1.02-1.54,1.02-2.47v-39.06c0-.61-.16-1.21-.47-1.75l-.18-.31h59l-.18.31c-.31.53-.47,1.13-.47,1.75v39.06c0,.93.37,1.81,1.02,2.47l4.46,4.45v62.86c0,1.71,1.24,3.16,2.92,3.44l-.5,1.87c-.08.29-.12.6-.12.9v98.83c0,.3.04.61.12.9l1.31,4.87,1.25,4.64.76,2.83v58.67c0,1.93,1.56,3.49,3.49,3.49h11.68c1.93,0,3.49-1.56,3.49-3.49v-16.31l2.61-2.62c.64-.64,1.01-1.5,1.02-2.41,0,0,.25-14.9.38-29.87.06-7.49.09-15,.05-20.7-.04-2.85-.07-5.24-.14-7-.04-.88-.08-1.59-.14-2.19-.04-.3-.06-.56-.13-.92-.04-.18-.08-.37-.21-.71-.13-.34-.12-.99-1.55-1.81.54.31.04-.01-.38-.41-.39-.39-.9-.94-1.4-1.48-.51-.55-1.01-1.11-1.47-1.59-.2-.21-.4-.41-.6-.6-.04-.29-.06-.55-.06-.6l19.25-9.26h52.92c1.93,0,3.49-1.56,3.49-3.49v-.09l8.56-2.29c1.52-.41,2.58-1.79,2.58-3.37v-10.87c0-1.24-.66-2.39-1.74-3.02l-.51-.3c.17-.28.3-.59.38-.9l-.09.36h43.47c1.58,0,2.96-1.06,3.37-2.58l.51-1.91c.25-.04.25-.02.52-.07.78-.14,1.59-.31,2.44-.61.43-.15.87-.32,1.42-.68s1.39-.96,1.78-2.38c.28-1.04,1.71-6.39,1.71-6.39.08-.32.12-.65.11-.98l3.22-1.86c.43-.25.81-.59,1.1-.99,15.73-22.04,39.44-43.81,74.08-47.26,1.67-.17,2.99-1.5,3.13-3.18l-.07.81,10.84-1.07,10.82,1.07-.07-.82c.14,1.68,1.46,3.02,3.13,3.19,34.64,3.44,58.35,25.22,74.09,47.26.29.41.66.74,1.1.99l3.22,1.86c0,.33.03.66.12.98,0,0,1.43,5.34,1.71,6.39.38,1.42,1.23,2.02,1.78,2.38.55.36.99.53,1.42.68.86.3,1.67.47,2.44.61.27.05.26.03.52.07l.51,1.91c.41,1.52,1.79,2.58,3.37,2.58h43.46l-.09-.37c.09.32.22.62.39.91l-.51.3c-1.08.62-1.74,1.77-1.74,3.02v10.87c0,1.58,1.06,2.96,2.59,3.37l8.56,2.29v.09c0,1.93,1.56,3.49,3.49,3.49h52.91l19.25,9.25s-.04.32-.06.61c-.2.19-.39.39-.6.6-.46.48-.97,1.04-1.47,1.58-.51.55-1.01,1.09-1.41,1.49-.39.4-.91.71-.38.41-1.43.82-1.42,1.48-1.55,1.81-.13.34-.17.53-.21.71-.08.35-.11.62-.14.92-.06.6-.1,1.31-.14,2.19-.07,1.76-.12,4.15-.14,7-.05,5.7-.04,13.21.05,20.7.13,14.98.38,29.87.38,29.87.02.9.38,1.77,1.02,2.41l2.62,2.62v16.31c0,1.93,1.56,3.49,3.49,3.49h25.96v56.27c-.03,1.93,1.51,3.51,3.44,3.54s3.51-1.51,3.54-3.44c0-.03,0-.07,0-.1v-59.76c0-1.93-1.56-3.49-3.49-3.49h-25.96v-14.26c0-.93-.37-1.81-1.02-2.47l-2.64-2.64c-.04-1.31-.24-14.18-.36-28.41-.06-7.47-.09-14.96-.05-20.58.04-2.81.07-5.16.14-6.77.04-.52.04-.8.07-1.14.08-.08.22-.17.32-.26.53-.53,1.07-1.11,1.59-1.68.52-.57,1.02-1.12,1.39-1.51.19-.2.34-.35.42-.43.08-.07.18-.08-.29.19,1.49-.86,1.69-1.8,1.91-2.41.08-.2.08-.34.13-.52l.36-.09c1.86-.5,2.97-2.41,2.47-4.27-.24-.89-.82-1.65-1.62-2.12l-3.78-2.18c-.08-.04-.15-.09-.23-.12l-20.7-9.95c-.47-.23-.99-.35-1.51-.35h-50.34c-.27-1.29-1.24-2.31-2.51-2.65l-8.56-2.29v-6.18l.52-.3c.26-.15.51-.34.72-.55l2.24-2.24c1.36-1.36,1.36-3.57,0-4.93-.22-.22-.46-.4-.73-.56l-1.49-.86-.22-.82c-.41-1.53-1.79-2.59-3.37-2.59h-43.47l-.42-1.57c-.38-1.42-1.61-2.45-3.08-2.57,0,0-1.2-.11-2.35-.31-.23-.04-.33-.08-.53-.12-.25-.93-.36-1.34-.62-2.34,1.48-1.24,1.67-3.44.43-4.92-.26-.31-.57-.57-.93-.78l-6.17-3.56c-15.98-22.16-40.46-44.45-75.73-49.02-.38-1.4-1.58-2.42-3.03-2.56l-14.07-1.38c-.23-.02-.45-.02-.68,0l-14.07,1.38c-1.44.14-2.64,1.16-3.02,2.56-35.28,4.57-59.75,26.86-75.73,49.02l-6.17,3.56c-1.67.96-2.24,3.1-1.27,4.77.2.35.47.67.78.93-.27,1-.38,1.41-.63,2.34-.2.05-.31.08-.53.12-1.15.2-2.35.31-2.35.31-1.46.12-2.69,1.15-3.08,2.57l-.42,1.57h-43.46c-1.58,0-2.96,1.06-3.37,2.58l-.22.82-1.49.86c-1.67.96-2.24,3.1-1.28,4.77.15.26.34.51.55.72l2.23,2.24c.21.21.46.4.72.55l.51.3v6.18l-8.56,2.29c-1.27.34-2.24,1.37-2.51,2.65h-50.3c-.52,0-1.04.12-1.51.35l-20.7,9.95c-.08.04-.16.08-.23.12l-3.77,2.18c-1.67.96-2.24,3.1-1.28,4.77.46.8,1.23,1.39,2.12,1.63l.36.09c.05.18.06.32.13.52.22.61.41,1.54,1.91,2.41-.51-.3-.38-.27-.3-.19.08.08.23.23.42.43.37.39.87.94,1.39,1.5.52.57,1.07,1.16,1.59,1.68.09.09.23.17.32.26.04.34.05.62.07,1.14.06,1.61.11,3.96.13,6.77.05,5.62.04,13.11-.05,20.58-.12,14.23-.34,27.11-.36,28.41l-2.63,2.64c-.65.65-1.02,1.54-1.02,2.47v14.26h-4.7v-55.64c0-.3-.04-.61-.12-.9l-.88-3.28h0s-1.24-4.64-1.24-4.64l-1.19-4.42v-97.91l1.54-5.77c.5-1.86-.61-3.77-2.47-4.27-.29-.08-.6-.12-.9-.12h-.48v-60.82c0-.93-.37-1.81-1.02-2.47l-4.46-4.45v-36.68l.52-.9h0s2.21-3.84,2.21-3.84c.96-1.67.39-3.8-1.28-4.77-.53-.31-1.13-.47-1.74-.47h-71.08c-1.93,0-3.49,1.56-3.49,3.49,0,.61.16,1.21.47,1.74l2.21,3.84h0s.52.9.52.9v36.68l-4.46,4.45c-.66.65-1.02,1.54-1.02,2.47v60.82h-1.63c-1.93,0-3.49,1.56-3.49,3.49,0,.3.04.61.12.9l1.05,3.94v10.66l-47.14-53.72-1.19-3.13c-.15-.41-.38-.78-.67-1.1l-2.46-2.71v-10.19h3.41c1.93,0,3.49-1.56,3.49-3.49,0-.3-.04-.61-.12-.9l-1.29-4.8c-.41-1.53-1.79-2.59-3.37-2.59h-1.68v-3.82c0-1.93-1.56-3.49-3.49-3.49h-3.9c-1.93,0-3.49,1.56-3.49,3.49v3.82h-1.68c-1.58,0-2.96,1.06-3.37,2.59l-1.28,4.8c-.5,1.86.61,3.77,2.47,4.27.29.08.59.12.9.12h3.4v10.19l-2.46,2.71c-.29.32-.52.7-.68,1.1l-1.18,3.12-47.14,53.72v-10.66l1.06-3.94c.5-1.86-.6-3.77-2.47-4.27-.29-.08-.6-.12-.9-.12h.19l-5.38-18.13v-32.03c0-1.93-1.56-3.49-3.49-3.49h-3.91l-11-34.55v-38.13l1.24-1.02c.96-.79,1.43-2.04,1.23-3.27l-15.58-94.2c.08-.27.11-.32.22-.7.25-.85.54-1.62.65-2.87h0c.1-1.13,0-2.01-.05-2.96-.06-.95-.13-1.77-.13-1.77-.09-1.05-.65-2-1.52-2.59l-.49-.34v-4.63l1.17-.45c1.13-.43,1.96-1.42,2.19-2.61l.62-3.3c.36-1.89-.89-3.72-2.78-4.08-.21-.04-.43-.06-.65-.06h-.2v-1.79c0-1.93-1.56-3.49-3.49-3.49h-2.46c-1.93,0-3.49,1.56-3.49,3.49v1.79h-.2c-1.93,0-3.49,1.56-3.49,3.49,0,.22.02.43.06.64l.62,3.3c.23,1.19,1.05,2.18,2.18,2.61l1.17.45v4.64l-.49.33c-.87.59-1.42,1.54-1.51,2.58,0,0-.07.82-.13,1.77-.06.95-.15,1.83-.05,2.96h0c.11,1.24.4,2.02.65,2.87.12.38.13.43.22.7l-15.57,94.2c-.2,1.23.27,2.47,1.23,3.26l1.24,1.02v38.13l-11,34.55h-3.91c-1.93,0-3.49,1.56-3.49,3.49h0v32.03l-5.38,18.13h.24c-1.93,0-3.49,1.56-3.49,3.49,0,.31.04.61.12.9l1.55,5.77v97.91l-1.18,4.42-1.25,4.63-.88,3.28c-.08.3-.12.6-.12.91v55.64h-12.58v-34.73l1.9-1.9c.65-.65,1.02-1.54,1.02-2.47v-1.51c0-1.28-.7-2.46-1.83-3.07l.14-.24c.88-1.53.48-3.47-.93-4.53.14-.58.28-1.17.4-1.55.06-.2.12-.34.12-.35,0-.01.12.07-.52.72.55-.56.69-.98.89-1.42.35-.04.33-.02.77-.08.56-.07,1.18-.15,1.99-.49.81-.33,2.19-1.18,2.64-2.88-.1.37.24-.45.63-1.34.19-.44.43-.93.53-1.86.05-.46.07-1.09-.2-1.86s-.96-1.63-1.72-2.08c-.54-.31-2.24-1.29-3.32-1.91-.07-.22-.14-.32-.14-.53,0,.25-.04.09.29-.53.15-.31.39-.71.59-1.46.2-.75.3-2.14-.39-3.34.63,1.1.24.71.28.36.04-.35.11-.67.11-.67.29-1.29-.16-2.63-1.18-3.47,0,0-.72-.6-1.44-1.27-.36-.33-.71-.69-.91-.91-.19-.22-.12-.69.18.64-.38-1.68-.84-2.1-1.23-2.87-.19-.36-.34-.68-.43-.88,0-.51-.04-1-.04-1.57,0-.74.16-1.51.12-1.41.47-1.33.81-2.14.8-2.12h0c.35-.72.43-1.03.61-1.52.18-.48.33-.91.33-.91.57-1.63-.13-3.43-1.66-4.24,0,0-.5-.28-1.17-.53-.33-.13-.71-.26-1.28-.36-.57-.09-1.57-.42-3.08.69-.13-.4-.32-.76-.58-1.09,0,0-.35-.45-.82-.94-.24-.25-.51-.52-.92-.82-.41-.31-.8-.92-2.55-.92-1.34,0-1.5.29-1.81.45-.31.15-.55.3-.8.45-.49.32-.98.68-1.47,1.09-.49.41-.98.85-1.45,1.38-.47.53-1.05.93-1.37,2.52h0c-.14.74-.28.88-.5,2.22-.05.28-.09.41-.22.78-.13.38-.51,1.28-.24,2.61.27,1.34.48,1.4.63,1.78.1.26.09.24.11.27-.13.21-.18.26-.44.79-.19.37-.14.32-.28.63-.97.03-1.66.06-3.32.09-.66.01-1.17,0-1.78.01v-5.08c.04-4.09.04-8.13.04-8.13,0-.77-.25-1.53-.72-2.14.12-.41.29-.48.29-1.14,0-.05.05-.54.1-1.18.05-.64.44-1.43-.57-3.18h0c-.52-.91-.71-.96-1.02-1.28-.31-.32-.63-.63-.95-.93-.05-.04-.04-.04-.08-.08l-7.72-320.95c.23-.32.28-.37.57-.81.33-.51.67-1.05.98-1.66s.74-.99.74-2.63c0,1.39-.08.58.12.14.2-.44.51-1.06.82-1.66.11-.2.11-.19.21-.38l6.22.57c1.92.17,3.62-1.24,3.79-3.16,0-.11.01-.21.01-.32v-12.7h.94c1.93,0,3.49-1.56,3.49-3.49v-2.51c0-1.93-1.56-3.49-3.49-3.49h-17.36l-1.04-3.87,3.3-5.71c.62-1.08.62-2.41,0-3.49l-1.47-2.54c-.15-.26-.34-.51-.55-.72l-1.99-1.99v-33.98l3.15-3.15,3.86-3.85c1.36-1.36,1.36-3.57,0-4.93-.43-.43-.97-.75-1.57-.9l-4.82-1.29c-.29-9.32-3.06-16.39-7.83-21.19-5.26-5.29-12.36-7.85-19.85-9.43-.48-.1-.97-.1-1.44,0-7.49,1.58-14.59,4.14-19.86,9.43-4.77,4.8-7.54,11.87-7.83,21.19l-4.82,1.29c-1.86.5-2.97,2.41-2.47,4.27.16.59.47,1.13.9,1.57l3.85,3.85,3.15,3.15v33.97l-1.99,1.99c-.22.22-.4.46-.56.73l-1.46,2.54c-.62,1.08-.62,2.41,0,3.48l3.3,5.71-1.04,3.87h-17.37c-1.93,0-3.49,1.56-3.49,3.49v2.51c0,1.93,1.56,3.49,3.49,3.49h.95v12.7c0,1.93,1.56,3.49,3.49,3.49.11,0,.21,0,.32-.01l6.21-.57c.11.19.11.19.21.38.32.6.63,1.22.83,1.66.2.44.12,1.25.12-.14,0,1.64.44,2.02.75,2.63.31.6.65,1.15.98,1.66.29.44.34.49.57.81l-7.72,320.95s-.04.04-.08.08c-.32.3-.64.62-.95.94-.31.32-.49.37-1.02,1.28-1.01,1.74-.62,2.54-.57,3.18s.1,1.13.1,1.18c0,.66.18.73.29,1.14-.47.61-.73,1.37-.72,2.14,0,0,.04,4.04.04,8.13v5.08c-.61,0-1.12,0-1.78-.01-1.66-.03-2.34-.06-3.31-.09-.14-.3-.09-.25-.28-.63h0c-.26-.53-.32-.58-.45-.79.04-.04,0-.01.11-.27.15-.39.37-.43.64-1.82.25-1.32-.12-2.2-.25-2.57-.12-.37-.17-.51-.22-.79h0c-.22-1.34-.36-1.48-.5-2.22h0c-.32-1.59-.9-1.99-1.37-2.52-.47-.53-.96-.97-1.45-1.38-.49-.41-.98-.77-1.47-1.09-.25-.16-.48-.3-.8-.45-.32-.15-.47-.45-1.81-.45-1.75,0-2.14.61-2.55.92-.41.31-.68.58-.91.82-.47.49-.82.94-.82.94-.25.33-.45.7-.57,1.09-1.52-1.13-2.52-.79-3.1-.69-.58.09-.95.23-1.28.36-.66.25-1.17.53-1.17.53-1.52.81-2.23,2.61-1.66,4.23,0,0,.15.43.33.91.18.49.25.79.62,1.53-.04-.04.32.78.79,2.11-.04-.11.12.67.12,1.41,0,.56-.04,1.06-.04,1.57-.08.2-.24.52-.43.88-.39.77-.86,1.19-1.24,2.88.31-1.39.38-.86.19-.64-.2.22-.55.58-.91.91-.72.67-1.45,1.27-1.45,1.27-1.02.84-1.48,2.18-1.18,3.47,0,0,.07.32.11.67.04.35-.36.74.28-.36-.69,1.19-.59,2.59-.39,3.34.2.75.44,1.15.6,1.46.31.62.28.78.28.53,0,.2-.07.31-.14.52-1.07.62-2.78,1.6-3.32,1.92-.77.44-1.45,1.3-1.72,2.08s-.26,1.4-.2,1.86c.1.93.34,1.41.54,1.86.38.89.73,1.71.62,1.33h0c.45,1.7,1.83,2.55,2.64,2.88.82.33,1.43.41,1.99.49.44.06.41.04.76.08.19.44.33.86.89,1.42-.65-.65-.53-.73-.53-.72,0,.01.06.15.12.35.12.38.27.97.4,1.56-1.4,1.06-1.8,3-.93,4.52l.14.25c-1.13.61-1.84,1.79-1.84,3.07v.59l-6.22-.41c-37.13-48.43-89.3-102.14-215.4-103.96-.05,0-.09,0-.14,0-106.24,2.52-175.02,48.32-215.52,103.93l-14.93.7v-441.86c0-1.93-1.56-3.49-3.49-3.49h-29.24l-9.01-42.81v-22.71c0-1.93-1.56-3.49-3.49-3.49h-21.2v-29.16c0-1.93-1.56-3.49-3.49-3.49h-12.52v-11.71c0-1.44-.89-2.73-2.23-3.25l-29.15-11.26c-.81-.31-1.71-.31-2.51,0l-29.15,11.26c-1.35.52-2.23,1.81-2.23,3.25v11.71h-12.52c-1.93,0-3.49,1.56-3.49,3.49v29.16h-21.19c-1.93,0-3.49,1.56-3.49,3.49v22.71l-9.01,42.81h-29.24c-1.93,0-3.49,1.56-3.49,3.49v481.61h-7.63v-89.19c0-1.93-1.56-3.49-3.49-3.49h-9.87v-13.34c0-1.93-1.56-3.49-3.49-3.49h-24.55c-.2-.03-.4-.05-.6-.05h-4.76v-160.37h4.75c1.93,0,3.49-1.56,3.49-3.49v-.05c0-1.93-1.56-3.49-3.49-3.49,0,0-.02,0-.02,0-1.73.01-2.95.02-4.73.03V207.26c0-1.93-1.56-3.49-3.49-3.49h-174.92c-1.93,0-3.49,1.56-3.49,3.49h0v565.21c-1.78-.01-3.01-.02-4.75-.03-1.93-.01-3.5,1.54-3.51,3.47v.07c0,1.93,1.56,3.49,3.49,3.49h4.77v160.42h-29.91c-1.93,0-3.49,1.56-3.49,3.49v13.34h-9.87c-1.93,0-3.49,1.56-3.49,3.49v89.19h-5.73V439.27c0-1.93-1.56-3.49-3.49-3.49h-158.38c-1.93,0-3.49,1.56-3.49,3.49v610.11h-13.32V307.79c0-1.93-1.56-3.49-3.49-3.49h-4.57v-2.2c0-1.93-1.56-3.49-3.49-3.49h-11.38c-1.25,0-2.4.67-3.02,1.75l-2.11,3.65h-2.05v-131.1c0-1.58-1.06-2.96-2.58-3.37l-11.92-3.2v-28.97c0-1.58-1.06-2.96-2.59-3.37l-9.05-2.43c-1.7-23.14-7.19-44.83-19.7-63.49-12.63-18.84-32.36-34.41-61.51-45.37v-9.07c1.49-.56,3.58-1.57,4.31-4.3.56-2.07-.38-3.73-1.15-4.72s-1.61-1.67-2.41-2.27c-1.61-1.19-3.19-1.98-3.19-1.98-.49-.25-1.03-.38-1.58-.38h-72.75ZM828.07,711.09c-.51.28-.94.68-1.26,1.17l-.18-.38,1.44-.78Zm-44.5.05l1.36.74-.18.39c-.3-.47-.7-.86-1.18-1.14h0Zm515.37,158.77v128.54l-1.61,2.78c-.31.53-.47,1.13-.47,1.75v5.98l-.92,1.6c-.46.8-.59,1.75-.35,2.64l.18.64v5.14l-.15.26c-.63,1.08-.63,2.41,0,3.5l.29.49v26.14h-14.04c13.4-58.14,14.24-119.2,17.08-179.47h0Zm2328.36,56.52c-8.61-.17-20.11,1.38-32.57,3.37-1.69.27-2.94,1.73-2.94,3.44v74.75c0,1.93,1.56,3.49,3.49,3.49h35.21c1.93,0,3.49-1.56,3.49-3.49v-77.9c0-1.8-1.37-3.31-3.17-3.48-1.11-.1-2.29-.17-3.52-.19h0Zm13.65.19c-1.93-.01-3.5,1.54-3.51,3.46v77.91c0,1.93,1.56,3.49,3.49,3.49h35.2c1.93,0,3.49-1.56,3.49-3.49v-74.67c0-1.72-1.25-3.18-2.95-3.45-10.35-1.61-21.17-3.15-35.72-3.26h0Zm-56.2,5.33c-.17,0-.34.02-.51.05-11.71,2.08-23.67,5.31-35.96,10.52-1.29.55-2.13,1.81-2.13,3.21v62.27c0,1.93,1.56,3.49,3.49,3.49h35.21c1.93,0,3.49-1.56,3.49-3.49v-72.56c0-1.93-1.56-3.49-3.49-3.49-.03,0-.07,0-.1,0Zm101.91.05c-1.93-.05-3.53,1.46-3.59,3.39,0,.03,0,.07,0,.1v72.51c0,1.93,1.56,3.49,3.49,3.49h35.21c1.93,0,3.49-1.56,3.49-3.49v-62.2c0-1.42-.86-2.7-2.18-3.23-10.56-4.27-21.55-8.66-36.07-10.53-.12-.02-.23-.02-.35-.03h0Zm-59.66,1.42v71.09h-28.24v-68.23c11.07-1.71,21.27-2.98,28.24-2.86Zm17.41.37c10.91.29,19.82,1.31,28.23,2.59v68.13h-28.23v-70.72Zm45.64,5.86c10.74,1.83,19.5,5.06,28.23,8.56v56.29h-28.23v-64.86Zm-108.69.16v64.7h-28.23v-56.32c9.58-3.88,18.95-6.51,28.23-8.38h0Zm-42.25,6.62c-.36.01-.72.08-1.06.2-13.26,4.68-24.74,12.33-35.98,19.79-.97.65-1.56,1.74-1.56,2.91v38.67c0,1.93,1.56,3.49,3.49,3.49h35.21c1.93,0,3.49-1.56,3.49-3.49v-58.08c0-1.93-1.56-3.49-3.49-3.49-.03,0-.07,0-.1,0Zm193.18.14c-1.93-.05-3.53,1.47-3.58,3.4,0,.03,0,.06,0,.09v57.94c0,1.93,1.56,3.49,3.49,3.49h35.21c1.93,0,3.49-1.56,3.49-3.49v-38.46c0-1.15-.57-2.22-1.51-2.88-10.48-7.18-22.44-13.75-35.74-19.78-.43-.19-.89-.3-1.35-.31h0Zm-196.57,8.58v49.35h-28.23v-33.27c9.24-6.13,18.42-11.95,28.23-16.09h0Zm199.97.55c10.34,4.94,19.86,10.17,28.23,15.78v33.02h-28.23v-48.8Zm140.33,10.87c0,.12.04.36-.13.83,0,0,0,0,0,.01.05-.15,0-.15.04-.27.04-.25.11-.18.11-.57h-.01Zm104.76,0c0,.3.07.23.08.45.04.12-.04.13.04.28-.09-.37-.11-.62-.11-.73h0Zm-487.31,7.01c-.74.02-1.45.28-2.03.73-12.54,9.7-23.23,20.23-32.19,31.52-1.2,1.51-.94,3.7.57,4.9.62.49,1.38.75,2.17.75h31.59c1.93,0,3.49-1.56,3.49-3.49v-30.93c0-1.93-1.56-3.49-3.49-3.49-.03,0-.07,0-.1,0h0Zm284.23.21c-1.87.08-3.35,1.61-3.35,3.49v30.72c0,1.93,1.56,3.49,3.49,3.49h31.35c1.93,0,3.49-1.56,3.49-3.49,0-.79-.27-1.55-.76-2.17-8.33-10.44-18.54-20.9-31.94-31.3-.65-.5-1.46-.76-2.28-.73Zm-287.61,10.93v19.79h-20.27c6.01-6.9,12.75-13.51,20.27-19.79Zm291.24.24c7.76,6.52,14.39,13.04,20.05,19.55h-20.05v-19.55Zm95.49,22.84c-.86.04-1.67.4-2.28,1l-1.66,1.64c-.68.68-1.06,1.6-1.04,2.57l.04,1.11c.04,1.8,1.46,3.28,3.26,3.4l11.82.77c1.92.13,3.58-1.33,3.71-3.25,0-.05,0-.09,0-.14l.04-1.01c.01-.55-.1-1.1-.34-1.59l-.96-2.02c-.55-1.15-1.69-1.91-2.97-1.98l-9.25-.48c-.12,0-.23,0-.35,0h-.02Zm95.24,0c-.87.04-1.69.4-2.3,1.02l-1.64,1.64c-.67.67-1.03,1.57-1.02,2.51l.58,39.95c.03,1.91,1.58,3.44,3.49,3.44h10.66c1.91,0,3.46-1.53,3.49-3.44l.61-39.08c0-.54-.11-1.07-.34-1.56l-.96-2.02c-.55-1.15-1.69-1.91-2.97-1.98l-9.25-.48c-.12,0-.23,0-.35,0h0Zm2.05,7.07l4.82.25-.54,34.25h-3.79l-.5-34.5Zm-531.39,2.36c-1.93,0-3.49,1.56-3.49,3.49v32.14c0,1.93,1.56,3.49,3.49,3.49h385.98c1.93,0,3.49-1.56,3.49-3.49h0v-32.15c0-1.93-1.56-3.49-3.49-3.49h-385.98Zm409.39,0c-1.91.03-3.43,1.58-3.43,3.49v32.14c0,1.93,1.56,3.49,3.49,3.49h11.66c1.93,0,3.49-1.56,3.49-3.49h0v-31.16c0-1.81-1.39-3.33-3.2-3.48l-11.66-.98c-.12-.01-.23-.02-.35-.01h0Zm-432.96,0s-.07,0-.11,0l-17.53,1.05c-1.84.11-3.28,1.64-3.28,3.48v31.09c0,1.93,1.56,3.49,3.49,3.49h17.53c1.93,0,3.49-1.56,3.49-3.49v-32.14c0-1.93-1.56-3.49-3.49-3.49-.03,0-.07,0-.1,0h0Zm456.29,1.97c-1.93.03-3.46,1.61-3.44,3.54l.44,30.18c.03,1.91,1.58,3.44,3.49,3.44h10.66c1.91,0,3.46-1.53,3.49-3.44l.46-29.2c.03-1.83-1.37-3.37-3.19-3.53l-11.55-.98c-.12-.01-.23-.02-.35-.01h0Zm-429.23,5h379v25.17h-379v-25.17Zm-30.45.22v24.96h-10.55v-24.32l10.55-.63Zm439.9.09l4.68.4v24.47h-4.68v-24.86Zm23.38,1.98l4.47.38-.35,22.51h-3.78l-.33-22.89Z"/>
  </g>
</svg>